<svg width="21" height="19" viewBox="0 0 21 19" fill="none" xmlns="http://www.w3.org/2000/svg">
<path d="M16.8322 7.87519C16.3031 7.87519 15.8743 8.30407 15.8743 8.83301V15.7563C15.8743 16.1579 15.5476 16.4845 15.146 16.4845H2.644C2.24243 16.4845 1.91566 16.1579 1.91566 15.7563V3.25425C1.91566 2.85268 2.24243 2.526 2.644 2.526H12.8997C13.4286 2.526 13.8575 2.09712 13.8575 1.56817C13.8575 1.03923 13.4286 0.610352 12.8997 0.610352H2.644C1.18605 0.610352 0 1.7964 0 3.25425V15.7562C0 17.2141 1.18605 18.4001 2.644 18.4001H15.146C16.6039 18.4001 17.79 17.2141 17.79 15.7562V8.83301C17.79 8.30403 17.3612 7.87519 16.8322 7.87519Z" fill="#1E2E4F"/>
<path d="M18.5603 0.28177L7.90796 10.9742L5.17025 8.2266C4.79686 7.85183 4.19045 7.85082 3.81568 8.22412C3.4409 8.5975 3.43981 9.20399 3.8132 9.57868L6.85554 12.632C7.13632 12.9141 7.51 13.0694 7.908 13.0694H7.9088C8.3071 13.0691 8.68095 12.9134 8.96063 12.6319L19.9174 1.63385C20.2908 1.25907 20.2896 0.652546 19.9148 0.279288C19.5401 -0.0940966 18.9336 -0.0929184 18.5603 0.28177Z" fill="#1E2E4F"/>
</svg>
