<svg width="29" height="36" viewBox="0 0 29 36" fill="none" xmlns="http://www.w3.org/2000/svg">
<g clip-path="url(#clip0_392_4037)">
<path d="M27.6944 12.8413C25.3521 14.2887 23.9054 16.77 23.9054 19.527C23.9054 22.6286 25.7654 25.4545 28.59 26.6263C28.0389 28.4183 27.2122 30.0725 26.1788 31.5888C24.6632 33.7255 23.0787 35.9311 20.7364 35.9311C18.394 35.9311 17.7051 34.5526 14.9495 34.5526C12.2627 34.5526 11.2982 36 9.09369 36C6.88916 36 5.37354 34.0012 3.65125 31.5199C1.37783 28.0737 0.0688916 24.076 0 19.8716C0 13.0481 4.40906 9.39506 8.81812 9.39506C11.1604 9.39506 13.0894 10.9114 14.5361 10.9114C15.914 10.9114 18.1185 9.32614 20.7364 9.32614C23.492 9.25721 26.1099 10.5668 27.6944 12.8413ZM19.4963 6.4313C20.6675 5.0528 21.2875 3.32968 21.3564 1.53764C21.3564 1.33086 21.3564 1.05516 21.2875 0.848389C19.2896 1.05516 17.4296 2.02011 16.1206 3.53646C14.9495 4.84603 14.2606 6.50022 14.1917 8.29226C14.1917 8.49904 14.1917 8.70581 14.2606 8.91259C14.3983 8.91259 14.605 8.98151 14.7428 8.98151C16.6029 8.84366 18.3252 7.87872 19.4963 6.4313Z" fill="black"/>
</g>
<defs>
<clipPath id="clip0_392_4037">
<rect width="28.59" height="35.1516" fill="white" transform="translate(0 0.848389)"/>
</clipPath>
</defs>
</svg>
