<svg width="24" height="24" viewBox="0 0 24 24" fill="none" xmlns="http://www.w3.org/2000/svg">
<path d="M9.32705 14.3395C9.85097 14.3395 10.2756 14.7642 10.2756 15.288V18.6851C10.2756 19.2089 9.85097 19.6336 9.32705 19.6336H3.99264C3.46878 19.6336 3.04411 19.2089 3.04411 18.6851V15.288C3.04411 14.7642 3.46878 14.3395 3.99264 14.3395H9.32705ZM20.0074 14.3395C20.5312 14.3395 20.9559 14.7642 20.9559 15.288V18.6851C20.9559 19.2089 20.5312 19.6336 20.0074 19.6336H14.6729C14.149 19.6336 13.7244 19.2089 13.7244 18.6851V15.288C13.7244 14.7642 14.149 14.3395 14.6729 14.3395H20.0074ZM20.0074 3.65796C20.5312 3.65796 20.9559 4.08264 20.9559 4.60649V9.94803C20.9559 10.4719 20.5312 10.8966 20.0074 10.8966H3.99264C3.46878 10.8966 3.04411 10.4719 3.04411 9.94803V4.60649C3.04411 4.11363 3.42053 3.70793 3.90104 3.66227L4.00779 3.65796H20.0074Z" stroke="#A6A5A0" stroke-width="1.5"/>
</svg>
