<svg width="32" height="32" viewBox="0 0 32 32" fill="none" xmlns="http://www.w3.org/2000/svg">
<g clip-path="url(#clip0_392_4195)">
<path d="M31.4482 7.17249H24.5518C24.3994 7.17249 24.2759 7.29598 24.2759 7.44836V7.69305C24.2759 8.28717 23.8193 8.79842 23.2258 8.82642C22.5922 8.8563 22.069 8.3513 22.069 7.72424V7.44836C22.069 7.29598 21.9455 7.17249 21.7931 7.17249H0.55175C0.247063 7.17249 0 7.41955 0 7.72424V24.276C0 24.5807 0.247063 24.8277 0.55175 24.8277H21.7931C21.9455 24.8277 22.069 24.7042 22.069 24.5519V24.3072C22.069 23.713 22.5256 23.2018 23.1191 23.1738C23.7527 23.1439 24.2759 23.6489 24.2759 24.276V24.5519C24.2759 24.7042 24.3994 24.8277 24.5518 24.8277H31.4483C31.753 24.8277 32.0001 24.5807 32.0001 24.276V7.72417C32 7.41949 31.7529 7.17249 31.4482 7.17249ZM23.7241 21.5173C23.7241 21.822 23.4774 22.069 23.1724 22.069C22.8674 22.069 22.6206 21.822 22.6206 21.5173V20.4139C22.6206 20.1092 22.8674 19.8621 23.1724 19.8621C23.4773 19.8621 23.7241 20.1092 23.7241 20.4139V21.5173ZM23.7241 18.2069C23.7241 18.5116 23.4774 18.7587 23.1724 18.7587C22.8674 18.7587 22.6206 18.5116 22.6206 18.2069V17.1035C22.6206 16.7988 22.8674 16.5517 23.1724 16.5517C23.4773 16.5517 23.7241 16.7988 23.7241 17.1035V18.2069ZM23.7241 14.8966C23.7241 15.2013 23.4774 15.4484 23.1724 15.4484C22.8674 15.4484 22.6206 15.2013 22.6206 14.8966V13.7932C22.6206 13.4885 22.8674 13.2414 23.1724 13.2414C23.4773 13.2414 23.7241 13.4885 23.7241 13.7932V14.8966ZM23.7241 11.5862C23.7241 11.8909 23.4774 12.138 23.1724 12.138C22.8674 12.138 22.6206 11.8909 22.6206 11.5862V10.4828C22.6206 10.1781 22.8674 9.93105 23.1724 9.93105C23.4773 9.93105 23.7241 10.1781 23.7241 10.4828V11.5862Z" fill="#FFDC64"/>
<path d="M6.06899 21.6553C5.89224 21.6553 5.71611 21.5879 5.58143 21.4532C5.31205 21.1838 5.31205 20.7474 5.58143 20.4779L15.5125 10.5469C15.7819 10.2775 16.2183 10.2775 16.4877 10.5469C16.7572 10.8163 16.7571 11.2527 16.4877 11.5221L6.55668 21.4532C6.42193 21.5879 6.2458 21.6553 6.06899 21.6553Z" fill="white"/>
<path d="M7.7242 15.5862C6.12726 15.5862 4.82764 14.2869 4.82764 12.6897C4.82764 11.0924 6.1272 9.79309 7.7242 9.79309C9.3212 9.79309 10.6208 11.0924 10.6208 12.6897C10.6208 14.2869 9.3212 15.5862 7.7242 15.5862ZM7.7242 11.1725C6.88745 11.1725 6.20695 11.853 6.20695 12.6897C6.20695 13.5265 6.88745 14.207 7.7242 14.207C8.56095 14.207 9.24145 13.5265 9.24145 12.6897C9.24145 11.8529 8.56095 11.1725 7.7242 11.1725Z" fill="white"/>
<path d="M14.3448 22.2069C12.7479 22.2069 11.4482 20.9076 11.4482 19.3104C11.4482 17.7131 12.7478 16.4138 14.3448 16.4138C15.9418 16.4138 17.2414 17.7131 17.2414 19.3104C17.2414 20.9076 15.9418 22.2069 14.3448 22.2069ZM14.3448 17.7932C13.5081 17.7932 12.8276 18.4737 12.8276 19.3104C12.8276 20.1472 13.5081 20.8277 14.3448 20.8277C15.1816 20.8277 15.8621 20.1472 15.8621 19.3104C15.8621 18.4737 15.1816 17.7932 14.3448 17.7932Z" fill="white"/>
<path d="M23.7241 10.4827V11.5862C23.7241 11.8909 23.4774 12.1379 23.1724 12.1379V13.2414C23.4773 13.2414 23.7241 13.4884 23.7241 13.7931V14.8966C23.7241 15.2012 23.4774 15.4483 23.1724 15.4483V16.5517C23.4773 16.5517 23.7241 16.7988 23.7241 17.1035V18.2069C23.7241 18.5116 23.4774 18.7587 23.1724 18.7587V19.8621C23.4773 19.8621 23.7241 20.1092 23.7241 20.4139V21.5173C23.7241 21.822 23.4774 22.0691 23.1724 22.0691V23.1725C23.7817 23.1725 24.2758 23.6666 24.2758 24.2759V24.5518C24.2758 24.7042 24.3993 24.8277 24.5517 24.8277H31.4482C31.7529 24.8277 32 24.5806 32 24.2759V7.72411C32 7.41943 31.7529 7.17236 31.4482 7.17236H24.5517C24.3994 7.17236 24.2759 7.29586 24.2759 7.44824V7.72411C24.2759 8.33349 23.7818 8.82755 23.1724 8.82755V9.93099C23.4774 9.93105 23.7241 10.1781 23.7241 10.4827Z" fill="#FFC850"/>
</g>
<defs>
<clipPath id="clip0_392_4195">
<rect width="32" height="32" fill="white"/>
</clipPath>
</defs>
</svg>
