<svg width="31" height="21" viewBox="0 0 31 21" fill="none" xmlns="http://www.w3.org/2000/svg">
<path fill-rule="evenodd" clip-rule="evenodd" d="M21.6766 6.95086C21.3005 6.57863 20.6916 6.57863 20.3146 6.95086L18.1194 9.14597L15.9825 7.00806C15.6102 6.63583 15.0052 6.63583 14.632 7.00806C14.2588 7.38029 14.2588 7.99116 14.632 8.36339L16.7689 10.4917L14.6042 12.6583C14.2282 13.0305 14.2282 13.6413 14.6042 14.0231C14.9803 14.3953 15.5902 14.3953 15.9662 14.0231L18.1309 11.8566L20.2678 13.9945C20.641 14.3668 21.2461 14.3668 21.6183 13.9945C21.9925 13.6223 21.9925 13.0114 21.6183 12.6392L19.4814 10.5109L21.6766 8.31562C22.0536 7.93385 22.0536 7.33263 21.6766 6.95086ZM28.6343 17.1823C28.6343 18.2322 27.7792 19.0911 26.7236 19.0911H9.99341L2.21387 10.4822L9.96574 1.91145H26.7236C27.7792 1.91145 28.6343 2.77043 28.6343 3.8203V17.1823ZM26.7236 0.00259521H9.59641C9.32917 -0.0164933 9.05618 0.0694331 8.85193 0.269863L0.275423 9.75682C0.0740393 9.95725 -0.0128015 10.2245 0.0015149 10.4822C-0.0128015 10.7494 0.0740393 11.0167 0.275423 11.2171L8.85193 20.7041C9.039 20.8854 9.28334 20.9809 9.52767 20.9809V21H26.7236C28.8338 21 30.5451 19.2916 30.5451 17.1823V3.8203C30.5451 1.71102 28.8338 0.00259521 26.7236 0.00259521Z" fill="#1E2E4F"/>
</svg>
