<svg width="19" height="15" viewBox="0 0 19 15" fill="none" xmlns="http://www.w3.org/2000/svg">
<path d="M15.9375 0H2.8125C1.21875 0 0 1.3125 0 2.8125V12.1875C0 13.7812 1.21875 15 2.8125 15H15.9375C17.5312 15 18.75 13.7812 18.75 12.1875V2.8125C18.75 1.21875 17.5312 0 15.9375 0ZM15.5625 1.875L10.0312 7.40625C9.65625 7.78125 9.09375 7.78125 8.71875 7.40625L3.1875 1.875H15.5625ZM15.9375 13.125H2.8125C2.25 13.125 1.875 12.75 1.875 12.1875V3.1875L7.40625 8.71875C8.53125 9.84375 10.3125 9.84375 11.3438 8.71875L16.875 3.1875V12.1875C16.875 12.75 16.5 13.125 15.9375 13.125Z" fill="#1E2E4F"/>
</svg>
