<svg width="22" height="16" viewBox="0 0 22 16" fill="none" xmlns="http://www.w3.org/2000/svg">
<path d="M19.0553 16H2.27799C1.02214 16 0 14.9782 0 13.7223V2.27767C0 1.02181 1.02214 0 2.27799 0H19.0553C20.3112 0 21.3333 1.02181 21.3333 2.27767V13.7223C21.3333 14.9782 20.3112 16 19.0553 16ZM2.27799 1C1.57357 1 1 1.57324 1 2.27767V13.7223C1 14.4268 1.57357 15 2.27799 15H19.0553C19.7598 15 20.3333 14.4268 20.3333 13.7223V2.27767C20.3333 1.57324 19.7598 1 19.0553 1H2.27799Z" fill="#767676"/>
<path d="M10.6667 10.3577C10.2637 10.3577 9.86003 10.2262 9.52344 9.96322L0.192057 2.67155C0.0709635 2.57682 0 2.43164 0 2.27767C0 1.02181 1.02214 0 2.27799 0H19.0553C20.3112 0 21.3333 1.02181 21.3333 2.27767C21.3333 2.43164 21.2624 2.57682 21.1413 2.67155L11.8099 9.96322C11.4733 10.2262 11.0697 10.3577 10.6667 10.3577ZM1.02018 2.0498L10.1393 9.17546C10.4492 9.41764 10.8841 9.41764 11.194 9.17546L20.3132 2.0498C20.2051 1.45378 19.6823 1 19.0553 1H2.27799C1.65104 1 1.12826 1.45378 1.02018 2.0498Z" fill="#767676"/>
<path d="M12.6673 5.67847H8.6673C8.39126 5.67847 8.1673 5.45451 8.1673 5.17847C8.1673 4.90243 8.39126 4.67847 8.6673 4.67847H12.6673C12.9433 4.67847 13.1673 4.90243 13.1673 5.17847C13.1673 5.45451 12.9433 5.67847 12.6673 5.67847Z" fill="#767676"/>
</svg>
