<svg width="24" height="29" viewBox="0 0 24 29" fill="none" xmlns="http://www.w3.org/2000/svg">
<path d="M21.8745 14.5928C21.8745 13.6636 21.7911 12.7702 21.6363 11.9125H9.29492V16.9812H16.3471C16.0434 18.6192 15.1201 20.007 13.7323 20.9362V24.224H17.9672C20.445 21.9428 21.8745 18.5835 21.8745 14.5928Z" fill="#4285F4"/>
<path d="M9.29495 27.3987C12.833 27.3987 15.7992 26.2253 17.9672 24.224L13.7324 20.9362C12.559 21.7224 11.058 22.187 9.29495 22.187C5.88202 22.187 2.99324 19.8819 1.9628 16.7847H-2.41504V20.1797C-0.258877 24.4623 4.17257 27.3987 9.29495 27.3987Z" fill="#34A853"/>
<path d="M1.96301 16.7848C1.70094 15.9985 1.55203 15.1587 1.55203 14.2951C1.55203 13.4314 1.70094 12.5916 1.96301 11.8053V8.41028H-2.41483C-3.33209 10.2363 -3.8094 12.2516 -3.80859 14.2951C-3.80859 16.4095 -3.30231 18.4108 -2.41483 20.1798L1.96301 16.7848Z" fill="#FBBC05"/>
<path d="M9.29495 6.403C11.2188 6.403 12.9461 7.06415 14.3042 8.36261L18.0625 4.60422C15.7932 2.48975 12.827 1.19128 9.29495 1.19128C4.17257 1.19128 -0.258877 4.12772 -2.41504 8.41026L1.9628 11.8053C2.99324 8.70807 5.88202 6.403 9.29495 6.403Z" fill="#EA4335"/>
</svg>
