<svg width="25" height="25" viewBox="0 0 25 25" fill="none" xmlns="http://www.w3.org/2000/svg">
<path d="M12.345 4.34111C12.4856 4.20066 12.6762 4.12177 12.875 4.12177C13.0738 4.12177 13.2644 4.20066 13.405 4.34111L22.095 13.0311C22.1642 13.1027 22.247 13.1598 22.3385 13.1991C22.43 13.2383 22.5285 13.259 22.6281 13.2598C22.7276 13.2606 22.8264 13.2416 22.9185 13.2038C23.0107 13.1661 23.0944 13.1104 23.1648 13.0399C23.2352 12.9694 23.2908 12.8857 23.3285 12.7935C23.3662 12.7013 23.3851 12.6025 23.3842 12.503C23.3833 12.4034 23.3625 12.305 23.3232 12.2135C23.2838 12.122 23.2267 12.0393 23.155 11.9701L14.466 3.28011C14.2571 3.07118 14.009 2.90544 13.736 2.79237C13.4631 2.67929 13.1705 2.62109 12.875 2.62109C12.5795 2.62109 12.2869 2.67929 12.014 2.79237C11.741 2.90544 11.4929 3.07118 11.284 3.28011L2.594 11.9701C2.5224 12.0393 2.4653 12.1221 2.42604 12.2136C2.38678 12.3052 2.36613 12.4036 2.36532 12.5032C2.3645 12.6028 2.38352 12.7015 2.42128 12.7937C2.45903 12.8858 2.51476 12.9695 2.58521 13.0399C2.65566 13.1103 2.73943 13.1659 2.83162 13.2036C2.92381 13.2413 3.02258 13.2602 3.12216 13.2593C3.22174 13.2584 3.32015 13.2377 3.41163 13.1983C3.50312 13.159 3.58585 13.1018 3.655 13.0301L12.345 4.34111Z" fill="#888888"/>
<path d="M12.875 5.93164L21.034 14.0906C21.064 14.1206 21.094 14.1486 21.125 14.1766V20.3746C21.125 21.4096 20.285 22.2496 19.25 22.2496H15.875C15.6761 22.2496 15.4853 22.1706 15.3447 22.03C15.204 21.8893 15.125 21.6986 15.125 21.4996V16.9996C15.125 16.8007 15.046 16.61 14.9053 16.4693C14.7647 16.3287 14.5739 16.2496 14.375 16.2496H11.375C11.1761 16.2496 10.9853 16.3287 10.8447 16.4693C10.704 16.61 10.625 16.8007 10.625 16.9996V21.4996C10.625 21.6986 10.546 21.8893 10.4053 22.03C10.2647 22.1706 10.0739 22.2496 9.875 22.2496H6.5C6.00272 22.2496 5.52581 22.0521 5.17417 21.7005C4.82254 21.3488 4.625 20.8719 4.625 20.3746V14.1766C4.65611 14.1488 4.68646 14.1201 4.716 14.0906L12.875 5.93164Z" fill="#888888"/>
</svg>
