<svg width="17" height="18" viewBox="0 0 17 18" fill="none" xmlns="http://www.w3.org/2000/svg">
<path d="M14.4037 11.636C13.4847 10.6558 12.3909 9.93013 11.1975 9.49085C12.4757 8.55179 13.3154 6.9802 13.3154 5.20312C13.3154 2.33413 11.1272 0 8.4375 0C5.74782 0 3.55957 2.33413 3.55957 5.20312C3.55957 6.9802 4.39933 8.55179 5.67758 9.49085C4.48414 9.93013 3.39029 10.6558 2.4713 11.636C0.877665 13.3359 0 15.596 0 18H1.31836C1.31836 13.8128 4.51199 10.4062 8.4375 10.4062C12.363 10.4062 15.5566 13.8128 15.5566 18H16.875C16.875 15.596 15.9973 13.3359 14.4037 11.636ZM8.4375 9C6.47476 9 4.87793 7.29675 4.87793 5.20312C4.87793 3.1095 6.47476 1.40625 8.4375 1.40625C10.4002 1.40625 11.9971 3.1095 11.9971 5.20312C11.9971 7.29675 10.4002 9 8.4375 9Z" fill="#767676"/>
</svg>
