<svg width="15" height="17" viewBox="0 0 15 17" fill="none" xmlns="http://www.w3.org/2000/svg">
<path fill-rule="evenodd" clip-rule="evenodd" d="M7.98411 16.9253C7.83798 17.0158 7.63965 17.0283 7.4768 16.9394C5.72112 15.9892 4.2452 14.8472 3.08661 13.6074C1.48747 11.9005 0.479161 10.0071 0.134699 8.18471C-0.216015 6.33571 0.111726 4.55778 1.19316 3.11201C1.61898 2.54009 2.16388 2.01963 2.82772 1.57031C4.35374 0.534775 6.09691 -0.0104881 7.83173 0.000152821C9.50387 0.0107938 11.153 0.541888 12.5789 1.64843C13.0799 2.03565 13.5016 2.47971 13.8461 2.96102C15.0089 4.58975 15.2594 6.66787 14.7479 8.77444C13.95 12.073 11.3888 15.1669 7.98411 16.9253ZM7.50188 3.28781C9.56443 3.28781 11.2345 4.71056 11.2345 6.46183C11.2345 8.21669 9.56233 9.63764 7.50188 9.63764C5.43932 9.63764 3.77132 8.21669 3.77132 6.46183C3.76711 4.70876 5.43932 3.28781 7.50188 3.28781Z" fill="#9F2102"/>
</svg>
