<svg width="24" height="24" viewBox="0 0 24 24" fill="none" xmlns="http://www.w3.org/2000/svg">
<path d="M16.9 3H7.1C5.9402 3 5 3.91142 5 5.03571V19.9643C5 21.0886 5.9402 22 7.1 22H16.9C18.0598 22 19 21.0886 19 19.9643V5.03571C19 3.91142 18.0598 3 16.9 3Z" stroke="black" stroke-width="2" stroke-linejoin="round"/>
<path d="M9.75 6H14.25" stroke="black" stroke-width="2" stroke-linecap="round" stroke-linejoin="round"/>
<path d="M13.3524 13.3326C13.1755 13.1441 12.9612 12.9947 12.7233 12.8937C12.4854 12.7927 12.229 12.7425 11.9705 12.7462C11.4268 12.7462 10.935 12.9529 10.5858 13.3289C10.2366 13.7048 10.0608 14.2251 10.1011 14.782C10.1813 15.8826 11.0199 16.7774 11.9705 16.7774C12.9211 16.7774 13.7583 15.8826 13.8394 14.7829C13.8807 14.2307 13.7072 13.7156 13.3524 13.3326Z" fill="black"/>
<path d="M14.9239 21.375H8.57799C8.49538 21.3763 8.41348 21.3595 8.33808 21.3257C8.26268 21.292 8.1956 21.242 8.14158 21.1795C8.08301 21.1094 8.04097 21.0269 8.01858 20.9383C7.99618 20.8497 7.99401 20.7572 8.01221 20.6677C8.16455 19.8445 8.63939 19.1531 9.38564 18.668C10.0485 18.2372 10.8885 18 11.751 18C12.6135 18 13.4535 18.2372 14.1163 18.668C14.8625 19.1531 15.3374 19.8445 15.4897 20.6677C15.5079 20.7572 15.5057 20.8497 15.4833 20.9383C15.4609 21.0269 15.4189 21.1094 15.3603 21.1795C15.3063 21.242 15.2392 21.292 15.1638 21.3257C15.0884 21.3595 15.0065 21.3763 14.9239 21.375Z" fill="black"/>
</svg>
