<svg width="18" height="21" viewBox="0 0 18 21" fill="none" xmlns="http://www.w3.org/2000/svg">
<path d="M12.875 4.5C12.875 5.49456 12.4799 6.44839 11.7766 7.15165C11.0734 7.85491 10.1195 8.25 9.12498 8.25C8.13041 8.25 7.17659 7.85491 6.47333 7.15165C5.77006 6.44839 5.37498 5.49456 5.37498 4.5C5.37498 3.50544 5.77006 2.55161 6.47333 1.84835C7.17659 1.14509 8.13041 0.75 9.12498 0.75C10.1195 0.75 11.0734 1.14509 11.7766 1.84835C12.4799 2.55161 12.875 3.50544 12.875 4.5ZM1.62598 18.618C1.65811 16.6504 2.46231 14.7742 3.86515 13.394C5.26799 12.0139 7.15706 11.2405 9.12498 11.2405C11.0929 11.2405 12.982 12.0139 14.3848 13.394C15.7876 14.7742 16.5918 16.6504 16.624 18.618C14.2714 19.6968 11.7131 20.2535 9.12498 20.25C6.44898 20.25 3.90898 19.666 1.62598 18.618Z" stroke="#888888" stroke-width="1.5" stroke-linecap="round" stroke-linejoin="round"/>
</svg>
