<svg width="22" height="22" viewBox="0 0 22 22" fill="none" xmlns="http://www.w3.org/2000/svg">
<path d="M11 22C8.82441 22 6.69767 21.3549 4.88873 20.1462C3.07979 18.9375 1.6699 17.2195 0.83733 15.2095C0.00476646 13.1995 -0.21307 10.9878 0.211367 8.85401C0.635805 6.72022 1.68345 4.76021 3.22183 3.22183C4.76021 1.68345 6.72022 0.635804 8.85401 0.211367C10.9878 -0.213071 13.1995 0.00476612 15.2095 0.83733C17.2195 1.66989 18.9375 3.07979 20.1462 4.88873C21.3549 6.69767 22 8.82441 22 11C22 13.9174 20.8411 16.7153 18.7782 18.7782C16.7153 20.8411 13.9174 22 11 22ZM12.4179 4.73L6.1479 11.0726L12.43 17.2821L13.97 15.7179L9.2521 11.0517L13.9821 6.27L12.4179 4.73Z" fill="#1E2E4F"/>
</svg>
