<svg width="50" height="50" viewBox="0 0 50 50" fill="none" xmlns="http://www.w3.org/2000/svg">
<path d="M13.1057 42.9723L13.9165 43.3777C17.2949 45.4047 21.0786 46.3507 24.8624 46.3507C36.7543 46.3507 46.484 36.6209 46.484 24.729C46.484 19.0534 44.1867 13.5128 40.1327 9.45877C36.0786 5.40472 30.6732 3.10742 24.8624 3.10742C12.9705 3.10742 3.2408 12.8372 3.37593 24.8642C3.37593 28.9182 4.59215 32.8372 6.61918 36.2155L7.15972 37.0263L4.99755 44.9993L13.1057 42.9723Z" fill="#4BB050"/>
<path d="M42.4324 7.2973C37.8378 2.56757 31.4865 0 25 0C11.2162 0 0.135135 11.2162 0.27027 24.8649C0.27027 29.1892 1.48649 33.3784 3.51351 37.1622L0 50L13.1081 46.6216C16.7568 48.6486 20.8108 49.5946 24.8649 49.5946C38.5135 49.5946 49.5946 38.3784 49.5946 24.7297C49.5946 18.1081 47.027 11.8919 42.4324 7.2973ZM25 45.4054C21.3514 45.4054 17.7027 44.4595 14.5946 42.5676L13.7838 42.1622L5.94595 44.1892L7.97297 36.4865L7.43243 35.6757C1.48649 26.0811 4.32432 13.3784 14.0541 7.43243C23.7838 1.48649 36.3514 4.32432 42.2973 14.0541C48.2432 23.7838 45.4054 36.3514 35.6757 42.2973C32.5676 44.3243 28.7838 45.4054 25 45.4054ZM36.8919 30.4054L35.4054 29.7297C35.4054 29.7297 33.2432 28.7838 31.8919 28.1081C31.7568 28.1081 31.6216 27.973 31.4865 27.973C31.0811 27.973 30.8108 28.1081 30.5405 28.2432C30.5405 28.2432 30.4054 28.3784 28.5135 30.5405C28.3784 30.8108 28.1081 30.9459 27.8378 30.9459H27.7027C27.5676 30.9459 27.2973 30.8108 27.1622 30.6757L26.4865 30.4054C25 29.7297 23.6486 28.9189 22.5676 27.8378C22.2973 27.5676 21.8919 27.2973 21.6216 27.027C20.6757 26.0811 19.7297 25 19.0541 23.7838L18.9189 23.5135C18.7838 23.3784 18.7838 23.2432 18.6486 22.973C18.6486 22.7027 18.6486 22.4324 18.7838 22.2973C18.7838 22.2973 19.3243 21.6216 19.7297 21.2162C20 20.9459 20.1351 20.5405 20.4054 20.2703C20.6757 19.8649 20.8108 19.3243 20.6757 18.9189C20.5405 18.2432 18.9189 14.5946 18.5135 13.7838C18.2432 13.3784 17.973 13.2432 17.5676 13.1081H17.1622C16.8919 13.1081 16.4865 13.1081 16.0811 13.1081C15.8108 13.1081 15.5405 13.2432 15.2703 13.2432L15.1351 13.3784C14.8649 13.5135 14.5946 13.7838 14.3243 13.9189C14.0541 14.1892 13.9189 14.4595 13.6487 14.7297C12.7027 15.9459 12.1622 17.4324 12.1622 18.9189C12.1622 20 12.4324 21.0811 12.8378 22.027L12.973 22.4324C14.1892 25 15.8108 27.2973 17.973 29.3243L18.5135 29.8649C18.9189 30.2703 19.3243 30.5405 19.5946 30.9459C22.4324 33.3784 25.6757 35.1351 29.3243 36.0811C29.7297 36.2162 30.2703 36.2162 30.6757 36.3513C31.0811 36.3513 31.6216 36.3513 32.027 36.3513C32.7027 36.3513 33.5135 36.0811 34.0541 35.8108C34.4595 35.5405 34.7297 35.5405 35 35.2703L35.2703 35C35.5405 34.7297 35.8108 34.5946 36.0811 34.3243C36.3514 34.0541 36.6216 33.7838 36.7568 33.5135C37.027 32.973 37.1622 32.2973 37.2973 31.6216C37.2973 31.3514 37.2973 30.9459 37.2973 30.6757C37.2973 30.6757 37.1622 30.5405 36.8919 30.4054Z" fill="white"/>
</svg>
